<mxfile host="app.diagrams.net" agent="Mozilla/5.0 (Windows NT 10.0; Win64; x64) AppleWebKit/537.36 (KHTML, like Gecko) Chrome/135.0.0.0 Safari/537.36 Edg/135.0.0.0" version="26.2.14">
  <diagram name="IntroducciónUML" id="ZwRlGIWwv1wZ9AdUjhb2">
    <mxGraphModel dx="675" dy="374" grid="1" gridSize="10" guides="1" tooltips="1" connect="1" arrows="1" fold="1" page="1" pageScale="1" pageWidth="827" pageHeight="1169" math="0" shadow="0">
      <root>
        <mxCell id="0" />
        <mxCell id="1" parent="0" />
        <mxCell id="NqRmBvynoXZGNYtRCJpB-1" value="Lavadora" style="swimlane;fontStyle=1;align=center;verticalAlign=top;childLayout=stackLayout;horizontal=1;startSize=26;horizontalStack=0;resizeParent=1;resizeParentMax=0;resizeLast=0;collapsible=1;marginBottom=0;whiteSpace=wrap;html=1;" vertex="1" parent="1">
          <mxGeometry x="320" y="315" width="150" height="170" as="geometry">
            <mxRectangle x="330" y="360" width="120" height="30" as="alternateBounds" />
          </mxGeometry>
        </mxCell>
        <mxCell id="NqRmBvynoXZGNYtRCJpB-2" value="marca&lt;div&gt;modelo&lt;/div&gt;&lt;div&gt;numeroSerie&lt;/div&gt;&lt;div&gt;capacidad&lt;/div&gt;" style="text;strokeColor=none;fillColor=none;align=left;verticalAlign=top;spacingLeft=4;spacingRight=4;overflow=hidden;rotatable=0;points=[[0,0.5],[1,0.5]];portConstraint=eastwest;whiteSpace=wrap;html=1;" vertex="1" parent="NqRmBvynoXZGNYtRCJpB-1">
          <mxGeometry y="26" width="150" height="84" as="geometry" />
        </mxCell>
        <mxCell id="NqRmBvynoXZGNYtRCJpB-3" value="" style="line;strokeWidth=1;fillColor=none;align=left;verticalAlign=middle;spacingTop=-1;spacingLeft=3;spacingRight=3;rotatable=0;labelPosition=right;points=[];portConstraint=eastwest;strokeColor=inherit;" vertex="1" parent="NqRmBvynoXZGNYtRCJpB-1">
          <mxGeometry y="110" width="150" height="10" as="geometry" />
        </mxCell>
        <mxCell id="NqRmBvynoXZGNYtRCJpB-4" value="afrefarRopa(C:String)&lt;div&gt;sacarRopa()&lt;/div&gt;" style="text;strokeColor=none;fillColor=none;align=left;verticalAlign=top;spacingLeft=4;spacingRight=4;overflow=hidden;rotatable=0;points=[[0,0.5],[1,0.5]];portConstraint=eastwest;whiteSpace=wrap;html=1;" vertex="1" parent="NqRmBvynoXZGNYtRCJpB-1">
          <mxGeometry y="120" width="150" height="50" as="geometry" />
        </mxCell>
        <mxCell id="NqRmBvynoXZGNYtRCJpB-5" value="Clase lavadora con&amp;nbsp;&lt;div&gt;atributos y métodos&lt;/div&gt;" style="text;html=1;align=center;verticalAlign=middle;resizable=0;points=[];autosize=1;strokeColor=none;fillColor=none;" vertex="1" parent="1">
          <mxGeometry x="320" y="270" width="130" height="40" as="geometry" />
        </mxCell>
        <mxCell id="NqRmBvynoXZGNYtRCJpB-6" value="com.ita.modelo" style="shape=folder;fontStyle=1;spacingTop=10;tabWidth=40;tabHeight=14;tabPosition=left;html=1;whiteSpace=wrap;" vertex="1" parent="1">
          <mxGeometry x="540" y="330" width="120" height="90" as="geometry" />
        </mxCell>
        <mxCell id="NqRmBvynoXZGNYtRCJpB-7" value="Ejemplo de un paquete" style="text;html=1;align=center;verticalAlign=middle;resizable=0;points=[];autosize=1;strokeColor=none;fillColor=none;" vertex="1" parent="1">
          <mxGeometry x="525" y="288" width="150" height="30" as="geometry" />
        </mxCell>
        <mxCell id="NqRmBvynoXZGNYtRCJpB-8" value="" style="shape=folder;fontStyle=1;spacingTop=10;tabWidth=40;tabHeight=14;tabPosition=left;html=1;whiteSpace=wrap;" vertex="1" parent="1">
          <mxGeometry x="520" y="440" width="200" height="130" as="geometry" />
        </mxCell>
        <mxCell id="NqRmBvynoXZGNYtRCJpB-9" value="Anfibio" style="html=1;whiteSpace=wrap;" vertex="1" parent="1">
          <mxGeometry x="540" y="490" width="60" height="30" as="geometry" />
        </mxCell>
        <mxCell id="NqRmBvynoXZGNYtRCJpB-13" style="edgeStyle=orthogonalEdgeStyle;rounded=0;orthogonalLoop=1;jettySize=auto;html=1;exitX=1;exitY=0.5;exitDx=0;exitDy=0;entryX=0.004;entryY=0.64;entryDx=0;entryDy=0;entryPerimeter=0;dashed=1;endArrow=none;startFill=0;" edge="1" parent="1" source="NqRmBvynoXZGNYtRCJpB-10" target="NqRmBvynoXZGNYtRCJpB-14">
          <mxGeometry relative="1" as="geometry">
            <mxPoint x="750" y="505.04761904761904" as="targetPoint" />
          </mxGeometry>
        </mxCell>
        <mxCell id="NqRmBvynoXZGNYtRCJpB-10" value="Mamifero" style="html=1;whiteSpace=wrap;" vertex="1" parent="1">
          <mxGeometry x="610" y="490" width="70" height="30" as="geometry" />
        </mxCell>
        <mxCell id="NqRmBvynoXZGNYtRCJpB-11" value="Reptil" style="html=1;whiteSpace=wrap;" vertex="1" parent="1">
          <mxGeometry x="560" y="530" width="70" height="30" as="geometry" />
        </mxCell>
        <mxCell id="NqRmBvynoXZGNYtRCJpB-12" value="com.lta.entidades" style="text;html=1;align=center;verticalAlign=middle;resizable=0;points=[];autosize=1;strokeColor=none;fillColor=none;" vertex="1" parent="1">
          <mxGeometry x="540" y="460" width="120" height="30" as="geometry" />
        </mxCell>
        <mxCell id="NqRmBvynoXZGNYtRCJpB-14" value="Esto es una clase dentro de un paquete" style="shape=note2;boundedLbl=1;whiteSpace=wrap;html=1;size=25;verticalAlign=top;align=center;" vertex="1" parent="1">
          <mxGeometry x="784" y="430" width="120" height="60" as="geometry" />
        </mxCell>
        <mxCell id="NqRmBvynoXZGNYtRCJpB-15" value="«interface»&lt;br&gt;&lt;b&gt;Formulario&lt;/b&gt;" style="html=1;whiteSpace=wrap;" vertex="1" parent="1">
          <mxGeometry x="784" y="540" width="110" height="50" as="geometry" />
        </mxCell>
        <mxCell id="NqRmBvynoXZGNYtRCJpB-16" value="Ejemplo de interfaz" style="text;html=1;align=center;verticalAlign=middle;resizable=0;points=[];autosize=1;strokeColor=none;fillColor=none;" vertex="1" parent="1">
          <mxGeometry x="774" y="510" width="130" height="30" as="geometry" />
        </mxCell>
      </root>
    </mxGraphModel>
  </diagram>
</mxfile>
